<svg width="315.625" height="315.625" viewBox="0 0 315.625 315.625" class="css-1j8o68f"><defs id="SvgjsDefs1001"></defs><g id="SvgjsG1007" featurekey="rootContainer" transform="matrix(6.3125,0,0,6.3125,0,0)" fill="#f12b6b"><path xmlns="http://www.w3.org/2000/svg" d="M50 25c0 8.88-3.62 15.67-10.6 20.11C35.53 47.58 29.93 50 25 50c-8.63 0-14.24-1.37-18.73-8C3.57 38 0 30.2 0 25c0-6.85 1.76-14.06 6.22-18.58S18.04 0 25 0c9.5 0 16.77 5.3 21 13.11 1.88 3.53 4 7.58 4 11.89z"></path></g><g id="SvgjsG1008" featurekey="symbolFeature-0" transform="matrix(0.949742961512339,0,0,0.949742961512339,110.50257129062209,47.04669419810851)" fill="#f6c7c7"><defs xmlns="http://www.w3.org/2000/svg"></defs><title xmlns="http://www.w3.org/2000/svg"></title><path xmlns="http://www.w3.org/2000/svg" d="M85.32,62.07A68.22,68.22,0,0,1,79,66.23c-.54.31-1.08.62-1.63.92l-.2.11-.11,0,0,0h0l-.07,0-.1.05c-.14.08-.32.17-.52.26a14,14,0,0,1-1.32.52c-.48.17-1,.31-1.48.45a30.59,30.59,0,0,1-3.14.65c-1.08.18-2.19.31-3.33.41-2.27.2-4.65.28-7.16.32s-5.15.06-7.92.14c-1.38,0-2.8.11-4.25.21l-2.19.18c-.74.07-1.48.16-2.25.27a61,61,0,0,0-9,2,90.87,90.87,0,0,0-8.63,3c-1.39.57-2.76,1.16-4.12,1.77a39.89,39.89,0,0,0,9.58,7.16c2-1,4-2,6-2.83a48.67,48.67,0,0,1,7.14-2.39c.57-.14,1.17-.28,1.77-.4s1.2-.23,1.8-.33c1.2-.21,2.4-.38,3.59-.53,2.38-.31,4.73-.53,7-.79s4.53-.52,6.73-.9c1.09-.2,2.18-.42,3.26-.69a29.78,29.78,0,0,0,3.27-1c.56-.2,1.12-.43,1.7-.69l.89-.44c.3-.15.62-.33,1-.53a11.4,11.4,0,0,0,1.08-.7c.1-.06.2-.15.31-.22L77,72.1l.09-.07.07-.06.1-.09.19-.18L79,70.22q3.14-3,6.22-6.08c1-1.07,2.09-2.14,3.13-3.23.16-.52.3-1,.43-1.57Q87.07,60.78,85.32,62.07Z" style="fill-rule: evenodd;"></path><path xmlns="http://www.w3.org/2000/svg" d="M80.24,49.11l-1.68-.06-.42,0-.21,0h-.16c-.19,0-.42,0-.65,0-1,0-2-.13-3.14-.26-2.21-.26-4.54-.66-6.94-1.12s-4.87-1-7.43-1.54-5.19-1.11-7.9-1.64c-1.36-.26-2.73-.52-4.13-.76l-2.12-.35-1.06-.17L43.3,43c-2.94-.4-5.92-.63-8.95-.74s-6.09-.09-9.19,0-6.25.33-9.43.61c-1.75.15-3.51.33-5.27.51a40.83,40.83,0,0,0-.46,6.1,41.64,41.64,0,0,0,.31,5c2.25-.38,4.44-.75,6.61-1.08,3-.48,6-.9,8.93-1.24s5.77-.59,8.56-.72,5.52-.19,8.15-.08l1,0,1,0,2,.12,3.92.31c2.59.23,5.13.49,7.62.73s4.93.48,7.33.65,4.74.28,7.12.25c1.2,0,2.39-.06,3.72-.21.34,0,.68-.08,1.06-.15l.14,0h.07l.06,0,.21-.06.43-.11,1.7-.46c2.26-.6,4.46-1.21,6.61-1.8l3.47-1v-.24c0-.24,0-.48,0-.72-1.06.11-2.15.19-3.24.24C84.63,49.15,82.47,49.17,80.24,49.11Z" style="fill-rule: evenodd;"></path><path xmlns="http://www.w3.org/2000/svg" d="M79.08,74.93c-.5.46-1,.91-1.52,1.35l-.19.17-.08.07,0,0-.07.06-.09.08-.46.37-.58.4-.63.4c-.44.26-.9.51-1.37.75-.94.47-1.94.89-3,1.28s-2.08.73-3.17,1c-2.17.64-4.46,1.18-6.86,1.71s-4.92,1-7.51,1.58c-1.29.28-2.61.56-3.93.87-.67.15-1.34.3-2,.47l-1,.24-1,.27c-2.11.56-4.21,1.22-6.28,2a40.05,40.05,0,0,0,45.6-19Q82,72.23,79.08,74.93Z" style="fill-rule: evenodd;"></path><path xmlns="http://www.w3.org/2000/svg" d="M80.29,26.58l.77.66.78.61,1.56,1.24c.63.5,1.25,1,1.87,1.55A40.08,40.08,0,0,0,58.79,10.48,218.06,218.06,0,0,1,77.17,24Z" style="fill-rule: evenodd;"></path><path xmlns="http://www.w3.org/2000/svg" d="M82.65,33.53l-1.57-1.14c-.26-.18-.52-.38-.79-.56l-.8-.51c-1.07-.68-2.15-1.36-3.24-2A266.39,266.39,0,0,0,48.52,14.44q-4.16-1.92-8.41-3.69A39.84,39.84,0,0,0,27,16.82Q37.06,19.4,46.5,22.47a301,301,0,0,1,29,11.08c1.12.5,2.23,1,3.33,1.51l.83.38.82.32c.56.21,1.1.43,1.65.66q3.27,1.32,6.39,2.84l.19.1c-.16-.63-.34-1.24-.53-1.85Q85.44,35.56,82.65,33.53Z" style="fill-rule: evenodd;"></path><path xmlns="http://www.w3.org/2000/svg" d="M87.76,43.12c-2.08-.66-4.21-1.39-6.38-2.17l-1.64-.59-.82-.3-.81-.24-3.37-1c-4.56-1.37-9.33-2.81-14.28-4.27-2.48-.72-5-1.46-7.58-2.19L49,31.26l-2-.54-1-.27-1-.26c-1.37-.32-2.72-.63-4.09-.93l-4.13-.89q-4.15-.87-8.45-1.69c-3.21-.61-6.47-1.21-9.78-1.77a39.76,39.76,0,0,0-5.79,10.22q7.17.66,14,1.38c3,.31,5.86.63,8.72,1l4.24.5c1.39.16,2.78.33,4.12.51l1,.13,1,.15,2,.32,4,.65L59.44,41c5.07.83,9.93,1.62,14.6,2.32l3.48.5.88.12c.28,0,.57,0,.85.05l1.69.1q3.36.21,6.56.52l2.23.23-.15-1.15C89,43.51,88.37,43.32,87.76,43.12Z" style="fill-rule: evenodd;"></path><path xmlns="http://www.w3.org/2000/svg" d="M85.94,55.23a63.91,63.91,0,0,1-6.49,2.12l-1.68.43-.42.1-.11,0,0,0-.06,0h-.06l-.58.15c-.44.09-.92.17-1.43.24s-1,.12-1.56.16c-1.08.09-2.19.12-3.32.13s-2.31,0-3.48-.08c-2.38-.11-4.85-.31-7.41-.54s-5.23-.5-8-.72c-1.39-.12-2.79-.22-4.22-.31-.71,0-1.43-.09-2.16-.12l-1.09,0-1.13,0a75.12,75.12,0,0,0-9.21.4c-3.09.32-6.18.82-9.28,1.44S18,60,15,60.82l-3.08.85a40.21,40.21,0,0,0,4.88,10.11l1.76-.65c2.75-1,5.48-1.9,8.19-2.7s5.42-1.47,8.08-2a66.5,66.5,0,0,1,7.81-1.08l.95-.06,1,0c.65,0,1.3-.06,1.95-.09,1.29,0,2.57-.08,3.84-.1,2.54,0,5,0,7.45-.08s4.79-.08,7.12-.22c1.17-.07,2.32-.16,3.46-.29s2.3-.3,3.47-.52c.59-.12,1.18-.25,1.79-.4s1.23-.35,1.92-.59c.34-.12.7-.26,1.09-.43l.15-.07.16-.07.15-.07.11-.06.42-.24,1.66-1c2.21-1.3,4.38-2.61,6.5-3.95q2-1.24,3.91-2.51l.12-1C88.53,54.17,87.25,54.72,85.94,55.23Z" style="fill-rule: evenodd;"></path></g><g id="SvgjsG1009" featurekey="nameFeature-0" transform="matrix(3.2217226379279724,0,0,3.2217226379279724,56.79631073052374,122.61976104754163)" fill="#f6c7c7"><path d="M8.76 31.72 l-1.68 0 c0.04 1.12 0.12 2.08 0.28 2.88 c0.08 0.4 1.28 0.16 1.32 -0.36 c0.08 -0.96 0.08 -1.76 0.08 -2.52 z M13.2 25.28 c-1.32 0.08 -2.92 0.28 -4.04 0.56 c-0.2 1.2 -0.48 2.72 -0.48 3.8 l2.32 0.08 c0 2.08 0.08 3.12 0 4.52 c-0.12 2.08 -4.68 3.08 -5.24 0.64 c-1 -4.4 -0.56 -13.36 0.4 -17.92 c0.28 -1.4 2.72 -2.72 3.72 -0.8 c0.48 0.92 0.6 2.44 0.6 3.6 c0.76 -0.04 1.4 -0.24 2.2 -0.56 c-0.04 -1.16 0.12 -2.6 0 -4.12 c-0.12 -1.48 -0.16 -3 -0.56 -3.24 c-1.32 -0.8 -7.48 -0.04 -8.08 0.64 c-0.8 0.92 -1.64 10.16 -1.64 13.84 c0 1.84 0 4.84 0.16 7.56 c0.16 2.44 0.32 4.68 1.04 5.44 c0.44 0.44 5.44 0.64 9.44 -0.76 c0.24 -3.52 0.32 -9.56 0.16 -13.28 z M15.04 22.92 c0.08 4.88 -0.24 12.6 -0.76 17.08 c-4.44 2 -11.16 2.72 -12.56 1.2 c-0.84 -0.92 -1.24 -3.72 -1.32 -6.8 c-0.08 -2.8 0.04 -5.88 0.12 -7.8 c0.12 -4.12 1.76 -14.48 2.64 -15.52 c1.36 -1.6 8.52 -2.64 10.44 -1.44 c0.6 0.36 1.08 2.36 1.16 4.68 c0.04 1.92 0 4 0.04 5.8 c-2.4 1.28 -3.56 1.48 -6.28 1.52 c0.16 -1.96 0.28 -3.32 0.04 -4.4 c-0.04 -0.12 -0.16 -0.16 -0.2 -0.04 c-0.64 2.72 -1.16 7 -1.28 10.88 c0.12 -1.28 0.52 -2.6 0.84 -3.84 c2.16 -0.72 4.36 -1.12 7.12 -1.32 z M27.48 15.16 c0.04 -1 -0.04 -2.32 -0.24 -3.4 c-2.24 0 -5.8 0.16 -8.28 0.44 c-0.44 6.44 -0.8 18.96 -0.32 27.56 c3.32 0.2 6.52 -0.48 8.36 -1.2 c0.08 -0.96 0.04 -1.92 -0.08 -2.8 c-1.52 0.2 -3.88 0.4 -5.32 0.36 c-0.28 -2.2 -0.32 -5.2 -0.04 -7.6 l5.6 -2.04 c0.08 -0.8 0 -1.72 -0.12 -2.48 l-5.76 0.6 c-0.08 -3.24 0.24 -6.04 0.52 -8.44 c1.84 -0.48 4.2 -0.8 5.68 -1 z M29.48 16.56 c-1.76 0.24 -4.04 0.64 -5.6 1.04 c-0.2 1.36 -0.44 3.12 -0.52 4.72 l5.24 -0.72 c0.52 2 0.56 4.12 0.16 6.2 l-5.52 2.24 c-0.12 1.32 -0.2 3 -0.16 4.24 c1.32 -0.12 3.4 -0.44 5.04 -1 c0.36 2.56 0.48 4.28 0.12 6.76 c-2.68 1.32 -6.88 2.48 -11.92 2.08 c-0.32 -10.04 0.68 -24.44 1.44 -31.8 c3.56 -0.64 8.48 -1.04 11.52 -1.08 c0.56 2.4 0.56 5.08 0.2 7.32 z M44.36 12.280000000000001 c-0.8 -0.04 -1.64 0.04 -2.52 0.32 c0.12 2.6 0.2 7.16 -0.24 10.84 c-0.12 1.16 -1.68 1.48 -2.08 0.44 c-1.56 -4.16 -3 -8.88 -4.24 -11.92 c-0.88 0.2 -1.76 0.44 -2.56 0.88 c-0.24 6.88 -0.56 19.96 -0.24 27.04 c0.72 0.12 1.6 0.08 2.48 -0.12 c-0.08 -3 -0.24 -8.16 0.08 -11.44 c0.12 -1.2 1.64 -2.08 2.2 -0.96 c2.04 4.08 3.24 8.28 4.36 11.28 c0.8 -0.08 1.64 -0.2 2.4 -0.48 c0.52 -6.8 0.76 -18.88 0.36 -25.88 z M46.64 9.920000000000002 c0.24 8.04 -0.52 21.8 -1.4 29.52 c-2 1.24 -3.32 1.24 -5.56 1.56 c-1 -2.96 -1.96 -6.44 -3.04 -9.48 c-0.16 3.12 -0.12 7.32 -0.16 10.16 c-2 0.6 -4.12 1.16 -6.32 0.2 c-0.16 -7.84 0.72 -22.48 1.24 -30.12 c1.96 -1.52 3.4 -1.72 5.64 -2.4 c1.04 2.68 2.16 6.12 3.12 9.24 c0.16 -2.72 0.12 -5.64 0.08 -7.68 c2.44 -1.12 4.16 -1.28 6.4 -1 z M56.160000000000004 31.72 l-1.68 0 c0.04 1.12 0.12 2.08 0.28 2.88 c0.08 0.4 1.28 0.16 1.32 -0.36 c0.08 -0.96 0.08 -1.76 0.08 -2.52 z M60.60000000000001 25.28 c-1.32 0.08 -2.92 0.28 -4.04 0.56 c-0.2 1.2 -0.48 2.72 -0.48 3.8 l2.32 0.08 c0 2.08 0.08 3.12 0 4.52 c-0.12 2.08 -4.68 3.08 -5.24 0.64 c-1 -4.4 -0.56 -13.36 0.4 -17.92 c0.28 -1.4 2.72 -2.72 3.72 -0.8 c0.48 0.92 0.6 2.44 0.6 3.6 c0.76 -0.04 1.4 -0.24 2.2 -0.56 c-0.04 -1.16 0.12 -2.6 0 -4.12 c-0.12 -1.48 -0.16 -3 -0.56 -3.24 c-1.32 -0.8 -7.48 -0.04 -8.08 0.64 c-0.8 0.92 -1.64 10.16 -1.64 13.84 c0 1.84 0 4.84 0.16 7.56 c0.16 2.44 0.32 4.68 1.04 5.44 c0.44 0.44 5.44 0.64 9.44 -0.76 c0.24 -3.52 0.32 -9.56 0.16 -13.28 z M62.440000000000005 22.92 c0.08 4.88 -0.24 12.6 -0.76 17.08 c-4.44 2 -11.16 2.72 -12.56 1.2 c-0.84 -0.92 -1.24 -3.72 -1.32 -6.8 c-0.08 -2.8 0.04 -5.88 0.12 -7.8 c0.12 -4.12 1.76 -14.48 2.64 -15.52 c1.36 -1.6 8.52 -2.64 10.44 -1.44 c0.6 0.36 1.08 2.36 1.16 4.68 c0.04 1.92 0 4 0.04 5.8 c-2.4 1.28 -3.56 1.48 -6.28 1.52 c0.16 -1.96 0.28 -3.32 0.04 -4.4 c-0.04 -0.12 -0.16 -0.16 -0.2 -0.04 c-0.64 2.72 -1.16 7 -1.28 10.88 c0.12 -1.28 0.52 -2.6 0.84 -3.84 c2.16 -0.72 4.36 -1.12 7.12 -1.32 z"></path></g></svg>

